<svg width="19" height="31" viewBox="0 0 19 31" fill="none" xmlns="http://www.w3.org/2000/svg">
<path fill-rule="evenodd" clip-rule="evenodd" d="M17.6469 15.0422H15.5267V7.39802C16.4668 7.10682 16.9368 6.32512 16.9368 5.40617V2.1158C16.9368 0.949605 16.2278 0.235596 15.0616 0.235596H3.78033C2.61413 0.235596 1.42513 0.949605 1.42513 2.1158V5.40617C1.42513 6.32512 2.13021 7.10658 2.83529 7.39802V15.0422H1.19504C0.806307 15.0422 0.25 15.1238 0.25 15.5123V16.9224C0.25 17.3112 0.485026 17.6275 0.955078 17.6275V29.8489C0.955078 29.9786 1.30033 30.3189 1.43007 30.3189H2.84022C2.96996 30.3189 2.83529 29.9786 2.83529 29.8489V21.623H15.5267V29.8489C15.5267 29.9786 15.8719 30.3189 16.0017 30.3189H17.4118C17.5416 30.3189 17.4069 29.9786 17.4069 29.8489V17.6275C17.877 17.6275 18.112 17.3112 18.112 16.9224V15.5123C18.112 15.1238 18.0358 15.0422 17.6469 15.0422ZM4.24544 7.75643H14.1165V15.0422H4.24544V7.75643ZM15.5267 20.2128H2.83529V17.8625H15.5267V20.2128Z" fill="#1E1E1E"/>
</svg>
