<svg width="21" height="29" viewBox="0 0 21 29" fill="none" xmlns="http://www.w3.org/2000/svg">
<path fill-rule="evenodd" clip-rule="evenodd" d="M2.56836 0.235596H19.1933C20.1754 0.235596 20.9746 1.03476 20.9747 2.01685V28.1418C20.9747 28.4696 20.7087 28.7356 20.3809 28.7356H18.5997V3.20433C18.5997 2.87658 18.3336 2.61056 18.0059 2.61056H3.7559C3.42815 2.61056 3.16213 2.87658 3.16213 3.20433V28.7356H1.38088C1.05313 28.7356 0.787109 28.4696 0.787109 28.1418V2.01685C0.787109 1.03476 1.58628 0.235596 2.56836 0.235596ZM4.34961 28.7356V3.7981H17.4121V28.7356H4.34961ZM14.4433 15.6731H15.6308C15.9586 15.6731 16.2246 15.4071 16.2246 15.0794C16.2246 14.7516 15.9586 14.4856 15.6308 14.4856H14.4433C13.4613 14.4856 12.6621 15.2848 12.6621 16.2668C12.6621 16.5946 12.9281 16.8606 13.2558 16.8606C13.5836 16.8606 13.8496 16.5946 13.8496 16.2668C13.8496 15.9403 14.1168 15.6731 14.4433 15.6731Z" fill="#1E1E1E"/>
</svg>
