<svg width="12" height="20" viewBox="0 0 12 20" fill="none" xmlns="http://www.w3.org/2000/svg">
<path fill-rule="evenodd" clip-rule="evenodd" d="M0.462509 9.27146L8.71055 0.964713C8.90132 0.772433 9.15598 0.666504 9.42751 0.666504C9.69905 0.666504 9.9537 0.772433 10.1445 0.964713L10.7519 1.57631C11.1471 1.97483 11.1471 2.62254 10.7519 3.02046L3.8258 9.99597L10.7596 16.9792C10.9503 17.1715 11.0557 17.4278 11.0557 17.7011C11.0557 17.9748 10.9503 18.2311 10.7596 18.4235L10.1522 19.035C9.96124 19.2272 9.70673 19.3332 9.4352 19.3332C9.16366 19.3332 8.90901 19.2272 8.71824 19.035L0.462509 10.7206C0.27129 10.5277 0.166264 10.2702 0.166866 9.99642C0.166264 9.72158 0.27129 9.4642 0.462509 9.27146Z" fill="#1E1E1E"/>
</svg>
