<svg width="17" height="20" viewBox="0 0 17 20" fill="none" xmlns="http://www.w3.org/2000/svg">
<path fill-rule="evenodd" clip-rule="evenodd" d="M16.3953 1.28374C16.2349 1.0533 16.0188 0.884785 15.7476 0.777884C15.5749 0.703952 15.3939 0.666921 15.2047 0.666921V0.666748H2.27571C2.08658 0.666748 1.90575 0.703779 1.73299 0.777711C1.46163 0.884526 1.24567 1.05326 1.08532 1.28357C0.925011 1.51388 0.844727 1.76873 0.844727 2.04843V17.9505C0.844727 18.2303 0.925011 18.485 1.08532 18.7156C1.24567 18.9458 1.46163 19.1145 1.73299 19.2213C1.90557 19.2952 2.08658 19.3322 2.27571 19.3322C2.66239 19.3322 3.00354 19.1964 3.2997 18.9252L8.74025 13.6941L14.1808 18.9253C14.4687 19.1881 14.81 19.3197 15.2047 19.3197C15.4103 19.3197 15.5913 19.2871 15.7476 19.2212C16.0188 19.1145 16.2348 18.9458 16.3953 18.7152C16.5556 18.485 16.6357 18.2302 16.6357 17.9504V2.0486C16.6357 1.7689 16.5554 1.51405 16.3953 1.28374Z" fill="#08A3A3"/>
</svg>
