<svg width="20" height="21" viewBox="0 0 20 21" fill="none" xmlns="http://www.w3.org/2000/svg">
<path fill-rule="evenodd" clip-rule="evenodd" d="M15.2824 4.27408C15.1678 4.10949 15.0134 3.98911 14.8197 3.91276C14.6964 3.85995 14.5671 3.8335 14.4319 3.8335V3.83337H5.19693C5.06184 3.83337 4.93268 3.85982 4.80928 3.91263C4.61545 3.98893 4.46119 4.10945 4.34666 4.27396C4.23215 4.43847 4.1748 4.6205 4.1748 4.82029V16.1789C4.1748 16.3787 4.23215 16.5607 4.34666 16.7254C4.46119 16.8899 4.61545 17.0103 4.80928 17.0866C4.93255 17.1394 5.06184 17.1658 5.19693 17.1658C5.47314 17.1658 5.71681 17.0688 5.92835 16.8751L9.81447 13.1387L13.7006 16.8752C13.9062 17.0629 14.15 17.1569 14.4319 17.1569C14.5788 17.1569 14.7081 17.1336 14.8197 17.0866C15.0134 17.0103 15.1677 16.8898 15.2823 16.7251C15.3968 16.5607 15.4541 16.3787 15.4541 16.1789V4.82041C15.4541 4.62063 15.3968 4.43859 15.2824 4.27408ZM14.3262 15.9056L10.5988 12.3279L9.81446 11.5791L9.03024 12.3279L5.30283 15.9056V4.96143H14.3262V15.9056Z" fill="#007878"/>
</svg>
