<svg width="375" height="63" viewBox="0 0 375 63" fill="none" xmlns="http://www.w3.org/2000/svg">
<path fill-rule="evenodd" clip-rule="evenodd" d="M709.293 53.9977C709.293 53.9977 633.912 -7.75125 539.446 -7.75125C477.04 -7.75125 441.737 -1.02642 368.937 15.1662C286.371 33.531 208.577 61 124.782 61C61.8948 61 -75.3789 8.16218 -122.026 8.16218C-186.725 8.16218 -204.959 17.0744 -204.959 17.0744V-23.4333L709.293 -23.4333V53.9977Z" fill="#FAFAFA"/>
<path fill-rule="evenodd" clip-rule="evenodd" d="M-516.21 51.7254C-516.21 51.7254 -476.682 19.9141 -304.502 19.9141C-169.906 19.9141 -153.111 55.1001 -57.6982 55.1001C16.6227 55.1001 89.9789 2.88487 186.841 2.88487C241.561 2.88487 273.449 32.7584 273.449 32.7584V-19.6999L-516.21 -19.6999V51.7254Z" fill="#FEB534"/>
<path fill-rule="evenodd" clip-rule="evenodd" d="M862 56.0595C862 56.0595 790.02 -5.14286 699.817 -5.14286C640.227 -5.14286 606.515 1.52253 537.001 17.5714C458.16 35.7738 383.877 63 303.863 63C243.813 63 112.734 10.631 68.1909 10.631C6.4093 10.631 -11 19.4643 -11 19.4643V-202L862 -202V56.0595Z" fill="#F6D644"/>
</svg>
