<svg width="20" height="20" viewBox="0 0 20 20" fill="none" xmlns="http://www.w3.org/2000/svg">
<path fill-rule="evenodd" clip-rule="evenodd" d="M8.62484 4.67968C8.54072 5.01619 8.20418 5.28268 7.86757 5.28268C7.54495 5.28268 7.34861 5.00222 7.43274 4.67968L7.62918 3.93638C7.7133 3.59986 8.04983 3.33337 8.38644 3.33337C8.70896 3.33337 8.9053 3.59976 8.82117 3.93638L8.62484 4.67968ZM13.4353 4.18885H14.0243L14.0242 4.1889C15.0199 4.1889 15.8333 5.00232 15.8333 5.99811L15.8332 14.5951C15.8332 15.5908 15.0199 16.4042 14.0241 16.4042H6.6753C5.67961 16.4042 4.86619 15.5909 4.86619 14.5951V14.2164H4.01069C3.51981 14.2164 3.08505 14.006 2.80459 13.6414C2.51013 13.2768 2.4259 12.7719 2.56618 12.267L4.29137 5.85784C4.52979 4.9182 5.4694 4.1889 6.40904 4.1889H7.02615L6.92793 4.55351C6.8438 4.86208 6.89986 5.18459 7.0822 5.42301C7.26454 5.66142 7.54503 5.78762 7.85357 5.78762C8.4285 5.78762 8.96145 5.36686 9.11573 4.80593L9.28399 4.18883L11.1914 4.18892L11.0932 4.55354C11.0091 4.8621 11.0651 5.18463 11.2475 5.42303C11.4158 5.66145 11.7103 5.78764 12.0188 5.78764C12.5798 5.78764 13.1128 5.36688 13.267 4.80595L13.4353 4.18885ZM3.68825 12.9822C3.77247 13.0944 3.91265 13.1225 4.02486 13.1225L11.3737 13.1224C11.8225 13.1224 12.3134 12.7158 12.4396 12.267L13.7999 7.19008H5.0767L3.64618 12.5474C3.59003 12.7298 3.60412 12.884 3.68825 12.9822ZM14.0243 15.3102C14.417 15.3102 14.7396 14.9876 14.7396 14.595L14.7256 14.595V7.89129L13.4774 12.5474C13.239 13.4871 12.2994 14.2164 11.3597 14.2164H5.96029V14.5951C5.96029 14.9877 6.28283 15.3103 6.67551 15.3103L14.0243 15.3102ZM12.0188 5.28268C12.3554 5.28268 12.692 5.01619 12.7761 4.67968L12.9724 3.93638C13.0566 3.59976 12.8602 3.33337 12.5377 3.33337C12.2011 3.33337 11.8646 3.59986 11.7804 3.93638L11.5701 4.67968C11.4859 5.00222 11.6822 5.28268 12.0188 5.28268ZM8.16209 10.1774L9.71881 8.94321L9.71883 8.94321C9.95722 8.74686 10.2939 8.78894 10.4761 9.04133C10.6724 9.27974 10.6304 9.63035 10.392 9.8127L8.38652 11.3975C8.28831 11.4676 8.1761 11.5097 8.0499 11.5097H7.97976C7.83956 11.4816 7.69928 11.4115 7.61515 11.2853L6.99805 10.4579C6.81569 10.2054 6.87185 9.86884 7.11025 9.68649C7.36275 9.50414 7.69928 9.5603 7.88163 9.7987L8.16209 10.1774Z" fill="#1E1E1E"/>
</svg>
