<svg width="20" height="20" viewBox="0 0 20 20" fill="none" xmlns="http://www.w3.org/2000/svg">
<path fill-rule="evenodd" clip-rule="evenodd" d="M11.6445 9.99449L18.9805 2.65849C19.4363 2.2031 19.4363 1.46421 18.9805 1.00883C18.5248 0.553048 17.7867 0.553048 17.3309 1.00883L9.99488 8.34483L2.65849 1.00883C2.20271 0.553048 1.4646 0.553048 1.00883 1.00883C0.553048 1.46421 0.553048 2.2031 1.00883 2.65849L8.34521 9.99449L1.00883 17.3305C0.553048 17.7859 0.553048 18.5248 1.00883 18.9802C1.23671 19.2077 1.53538 19.3216 1.83366 19.3216C2.13194 19.3216 2.4306 19.2077 2.65849 18.9798L9.99488 11.6438L17.3309 18.9798C17.5588 19.2077 17.8574 19.3216 18.1557 19.3216C18.454 19.3216 18.7527 19.2077 18.9805 18.9798C19.4363 18.5244 19.4363 17.7855 18.9805 17.3301L11.6445 9.99449Z" fill="#1E1E1E"/>
</svg>
