<svg width="16" height="14" viewBox="0 0 16 14" fill="none" xmlns="http://www.w3.org/2000/svg">
<path fill-rule="evenodd" clip-rule="evenodd" d="M10.6667 2H14.1667C15.18 2 16 2.82 16 3.83333V5.36L8.16 7.97333C8.10667 7.99333 8.05333 8 8 8C7.94667 8 7.89333 7.99333 7.84 7.97333L0 5.36V3.83333C0 2.82 0.82 2 1.83333 2H5.33333V1.33333C5.33333 0.598 5.93133 0 6.66667 0H9.33333C10.0687 0 10.6667 0.598 10.6667 1.33333V2ZM6.66667 2V1.33333H9.33333V2H6.66667ZM8.47333 8.92C8.35333 8.96667 8.18 9 8 9C7.82 9 7.64667 8.96667 7.48667 8.90667L0 6.41333V11.5C0 12.5133 0.82 13.3333 1.83333 13.3333H14.1667C15.18 13.3333 16 12.5133 16 11.5V6.41333L8.47333 8.92Z" fill="#1E1E1E"/>
</svg>
