<svg width="19" height="14" viewBox="0 0 19 14" fill="none" xmlns="http://www.w3.org/2000/svg">
<path fill-rule="evenodd" clip-rule="evenodd" d="M18.9855 1.72742V7.47454C18.9855 7.47454 17.7555 7.71686 17.5021 7.74873C17.2495 7.78053 16.4557 8.03684 15.8804 7.48388C14.9933 6.63359 11.8411 3.49886 11.8411 3.49886C11.8411 3.49886 11.2976 2.96556 10.425 3.42646C9.62392 3.84868 8.43646 4.46744 7.94047 4.70839C7.00284 5.20745 6.22572 4.41565 6.22572 3.81252C6.22572 3.34468 6.51765 3.02716 6.93496 2.79364C8.06592 2.10803 10.4497 0.770026 11.4425 0.242508C12.046 -0.078462 12.4808 -0.105966 13.3093 0.592016C14.3297 1.4502 15.2378 2.23245 15.2378 2.23245C15.2378 2.23245 15.534 2.47964 16.0064 2.38008C17.1663 2.13485 18.9855 1.72742 18.9855 1.72742ZM6.43924 11.4653C6.59189 11.0732 6.54086 10.6345 6.2482 10.3336C5.98523 10.0644 5.60128 9.99345 5.23519 10.0773C5.33758 9.71424 5.28104 9.32776 5.01665 9.05502C4.75287 8.78653 4.36966 8.71417 4.0036 8.79883C4.10523 8.43626 4.04884 8.04982 3.78429 7.77788C3.37005 7.35299 2.65353 7.37122 2.18282 7.81991C1.7146 8.2692 1.41466 9.08322 1.83254 9.56235C2.24974 10.0391 2.7291 9.74902 3.09455 9.66574C2.99288 10.0283 2.68827 10.3656 3.06341 10.8401C3.4382 11.3149 3.95993 11.0269 4.32576 10.9444C4.22375 11.3056 3.93243 11.6767 4.29316 12.1167C4.65715 12.5581 5.25331 12.3229 5.64706 12.2006C5.4951 12.5913 5.16984 13.0124 5.58772 13.4844C6.00496 13.9597 6.96917 13.7398 7.44015 13.2904C7.90986 12.8411 7.95495 12.129 7.54181 11.7028C7.25658 11.4104 6.83138 11.3423 6.43924 11.4653ZM15.0331 8.47537C11.6284 5.07065 13.2298 6.67274 11.3975 4.83656C11.3975 4.83656 10.8469 4.28836 10.1211 4.6068C9.61166 4.83005 8.95574 5.13432 8.4622 5.36661C7.91986 5.651 7.52955 5.73902 7.3463 5.7378C6.29785 5.73094 5.44722 4.88824 5.44722 3.84082C5.44722 3.16134 5.80795 2.56978 6.34596 2.23398C7.10251 1.71045 8.84393 0.784199 8.84393 0.784199C8.84393 0.784199 8.31342 0.111959 7.15128 0.111959C5.98948 0.111959 3.56216 1.70214 3.56216 1.70214C3.56216 1.70214 2.87356 2.1432 1.89196 1.74592L0 1.08709V7.66342C0 7.66342 0.540236 7.81979 1.02566 8.01807C1.13529 7.70541 1.31219 7.41669 1.55758 7.17824C2.3629 6.41119 3.69772 6.40322 4.43041 7.15767C4.65113 7.38701 4.80516 7.66059 4.88377 7.96302C5.17899 8.05415 5.44641 8.21557 5.66131 8.43699C5.88268 8.66479 6.03614 8.93991 6.1154 9.24081C6.41028 9.33202 6.67731 9.49405 6.89294 9.71562C7.13576 9.96603 7.29753 10.2685 7.37307 10.5962C7.68132 10.686 7.95989 10.8531 8.18425 11.0824C8.62458 11.5347 8.78087 12.1483 8.68618 12.7403C8.68694 12.7403 8.6884 12.7403 8.68909 12.7416C8.69629 12.751 8.96191 13.0471 9.12755 13.2141C9.45216 13.5391 9.9822 13.5391 10.3078 13.2141C10.6313 12.8893 10.6327 12.3603 10.3078 12.0339C10.2962 12.0223 9.1367 10.8095 9.23002 10.7155C9.32264 10.6221 10.7999 12.1591 10.8274 12.1873C11.1515 12.5115 11.6812 12.5115 12.0069 12.1873C12.3318 11.8625 12.3311 11.3335 12.0069 11.0078C11.991 10.9926 11.9245 10.9289 11.8998 10.9035C11.8998 10.9035 10.4352 9.59882 10.5466 9.48735C10.6595 9.37519 12.4787 11.0729 12.4817 11.0729C12.8087 11.3674 13.3125 11.3652 13.6271 11.0505C13.9332 10.7444 13.9397 10.2603 13.6684 9.934C13.6626 9.91665 12.2819 8.47372 12.3896 8.36516C12.499 8.25518 13.8652 9.66195 13.868 9.66486C14.1915 9.98905 14.7219 9.98905 15.0476 9.66486C15.3718 9.34064 15.3718 8.81097 15.0476 8.48387C15.0432 8.48111 15.0374 8.4782 15.0331 8.47537Z" fill="#1E1E1E"/>
</svg>
