<svg width="28" height="28" viewBox="0 0 28 28" fill="none" xmlns="http://www.w3.org/2000/svg">
<path fill-rule="evenodd" clip-rule="evenodd" d="M14.2553 8.49475V9.64982L18.2405 12.1405H9.17632L13.1615 9.64982V5.2135C13.1615 4.91148 13.4064 4.66663 13.7084 4.66663C14.0104 4.66663 14.2553 4.91148 14.2553 5.2135H16.625C16.927 5.2135 17.1719 5.45836 17.1719 5.76038V7.94788C17.1719 8.2499 16.927 8.49475 16.625 8.49475H14.2553ZM19.724 20.4166H21.0364C21.3385 20.4166 21.5833 20.6615 21.5833 20.9635V22.7864C21.5833 23.0884 21.3384 23.3333 21.0364 23.3333H6.38037C6.07835 23.3333 5.8335 23.0884 5.8335 22.7864V20.9635C5.8335 20.6615 6.07835 20.4166 6.38037 20.4166H7.6928V16.151H6.38041C6.19086 16.151 6.01484 16.0529 5.9152 15.8916C5.81556 15.7304 5.80648 15.5291 5.89125 15.3596L6.80274 13.5365C6.89538 13.3513 7.08471 13.2342 7.29187 13.2342H20.1249C20.3321 13.2342 20.5215 13.3513 20.6141 13.5365L21.5256 15.3596C21.6104 15.5291 21.6013 15.7304 21.5016 15.8916C21.402 16.0529 21.226 16.151 21.0364 16.151H19.724V20.4166ZM10.4271 20.4166H12.5053V16.151H10.4271V20.4166ZM16.9897 20.4166H14.9115V16.151H16.9897V20.4166Z" fill="#1E1E1E"/>
</svg>
