<svg width="24" height="26" viewBox="0 0 24 26" fill="none" xmlns="http://www.w3.org/2000/svg">
<path fill-rule="evenodd" clip-rule="evenodd" d="M14.971 6.50723C15.3584 9.04798 14.4406 11.5635 12.5144 13.2359C11.3021 14.2893 10.6064 15.7767 10.6064 17.3164C10.6064 20.2842 8.12803 22.6617 5.13306 22.5043C2.24001 22.3529 0.21582 19.6929 0.21582 17.3164V7.66801C0.21582 2.9858 4.50616 -0.583136 9.24428 0.415353C12.1898 1.03632 14.5123 3.50335 14.971 6.50723ZM9.52038 10.9213C9.78954 11.2305 10.2581 11.2637 10.5674 10.995C11.738 9.97869 12.2729 8.50668 12.0359 6.956C11.7306 4.95457 9.98598 3.21538 7.63572 3.21538C5.2762 3.21538 3.07977 5.0037 3.18952 8.2672C3.22519 9.74242 3.57941 11.2441 4.50616 12.3997C4.89051 12.8763 4.55371 13.6055 3.92676 13.6055C3.51707 13.6055 3.18457 13.938 3.18457 14.3477C3.18457 14.7574 3.51707 15.0899 3.92676 15.0899C5.7941 15.0899 6.825 12.9172 5.66397 11.4705C5.05637 10.7135 4.72486 9.65212 4.67587 8.31124C4.72436 7.94856 5.03559 7.66801 5.41113 7.66801C5.82033 7.66801 6.15332 8.001 6.15332 8.4102C6.15332 8.81988 6.48582 9.15238 6.89551 9.15238C7.3052 9.15238 7.63769 8.81988 7.63769 8.4102C7.63769 7.04027 6.40403 5.9921 5.05736 6.21184C5.58332 5.24947 6.57785 4.69975 7.63572 4.69975C9.23142 4.69975 10.3665 5.85658 10.5688 7.18014C10.7272 8.21673 10.3719 9.1989 9.5941 9.87429C9.28486 10.143 9.25171 10.6115 9.52038 10.9213ZM12.0908 19.642C12.0908 16.3679 14.7543 13.7045 18.0283 13.7045C21.3024 13.7045 23.9658 16.3695 23.9658 19.642C23.9658 22.916 21.3024 25.5795 18.0283 25.5795C14.7724 25.5795 12.0908 22.9358 12.0908 19.642ZM20.6071 16.0136C19.8792 15.4941 18.9887 15.1888 18.0283 15.1888C15.5727 15.1888 13.5752 17.1863 13.5751 19.642C13.5751 20.6024 13.8804 21.4929 14.3999 22.2208L20.6071 16.0136ZM15.4496 23.2703C16.1774 23.7899 17.068 24.0951 18.0283 24.0951C20.484 24.0951 22.4814 22.0976 22.4815 19.6419C22.4815 18.6816 22.1762 17.791 21.6567 17.0632L15.4496 23.2703Z" fill="#1E1E1E"/>
</svg>
