<svg width="25" height="26" viewBox="0 0 25 26" fill="none" xmlns="http://www.w3.org/2000/svg">
<path fill-rule="evenodd" clip-rule="evenodd" d="M22.3495 11.2582L24.4255 15.4093C24.7176 15.9942 24.6864 16.6742 24.3428 17.2301C23.9999 17.7854 23.4049 18.1166 22.7525 18.1166H22.351V20.3432C22.351 21.5711 21.3521 22.5699 20.1243 22.5699H16.7988C16.5864 22.5699 16.4132 22.7431 16.4132 22.9555V24.8956C16.4132 25.3059 16.0812 25.6378 15.671 25.6378H5.27985C4.86957 25.6378 4.53762 25.3058 4.53762 24.8956C4.53762 22.5203 3.73739 20.0715 2.22397 17.9999C0.396656 15.5007 -0.293381 12.4158 0.281419 9.31281C1.09758 4.90728 4.59778 1.37303 8.99168 0.519913C16.0074 -0.840566 22.2419 4.42031 22.3495 11.2582ZM4.53762 11.4365C4.53762 15.1201 7.53407 18.1165 11.2177 18.1165C14.9012 18.1165 17.8977 15.1201 17.8977 11.4365C17.8977 7.75293 14.9012 4.75647 11.2177 4.75647C7.53407 4.75647 4.53762 7.75293 4.53762 11.4365ZM6.02209 11.4365C6.02209 8.57195 8.3531 6.24094 11.2177 6.24094C14.0821 6.24094 16.4132 8.572 16.4132 11.4365C16.4132 14.301 14.0822 16.6321 11.2177 16.6321C8.3531 16.6321 6.02209 14.301 6.02209 11.4365ZM10.4754 14.4054C10.4754 14.8153 10.8078 15.1476 11.2177 15.1476C11.6275 15.1476 11.9599 14.8153 11.9599 14.4054C11.9599 13.9954 11.6275 13.6632 11.2177 13.6632C10.8077 13.6632 10.4754 13.9954 10.4754 14.4054ZM11.9598 12.5158C11.9598 12.2541 12.078 12.0164 12.2534 11.9236C12.9877 11.5373 13.4443 10.782 13.4442 9.95208C13.4442 8.72425 12.4453 7.72542 11.2175 7.72542C9.98968 7.72542 8.99084 8.72425 8.99084 9.95208C8.99084 10.3624 9.3228 10.6943 9.73308 10.6943C10.1434 10.6943 10.4753 10.3623 10.4753 9.95208C10.4753 9.54254 10.808 9.20984 11.2176 9.20984C11.6271 9.20984 11.9598 9.54259 11.9598 9.95208C11.9598 10.229 11.8076 10.4813 11.5619 10.6102C10.8921 10.9625 10.4754 11.6924 10.4754 12.5158C10.4754 12.9261 10.8073 13.2581 11.2176 13.2581C11.6279 13.2581 11.9598 12.9261 11.9598 12.5158Z" fill="#1E1E1E"/>
</svg>
