<svg width="24" height="24" viewBox="0 0 24 24" fill="none" xmlns="http://www.w3.org/2000/svg">
<path fill-rule="evenodd" clip-rule="evenodd" d="M13.7451 10.2253C13.5559 10.0349 13.3462 9.86623 13.1197 9.72223C12.5199 9.33814 11.8225 9.13404 11.1103 9.13404C10.1217 9.1322 9.17324 9.52499 8.47542 10.2253L5.09003 13.6133C4.39339 14.3113 4.00185 15.257 4.00122 16.2431C3.99991 18.3009 5.66703 19.9702 7.72489 19.9715C8.71196 19.975 9.65951 19.584 10.3571 18.8856L13.1516 16.0911C13.2024 16.0408 13.2308 15.9721 13.2304 15.9006C13.2295 15.7536 13.1097 15.6352 12.9627 15.636H12.8562C12.2723 15.6381 11.6937 15.5259 11.1529 15.306C11.0532 15.265 10.9387 15.2881 10.8628 15.3645L8.85337 17.3766C8.2294 18.0006 7.21775 18.0006 6.59378 17.3766C5.96981 16.7526 5.96981 15.741 6.59378 15.117L9.99249 11.721C10.616 11.0983 11.626 11.0983 12.2494 11.721C12.6696 12.1164 13.325 12.1164 13.7452 11.721C13.9259 11.5401 14.0355 11.3001 14.0539 11.045C14.0733 10.7401 13.9609 10.4415 13.7451 10.2253Z" fill="#08A3A3"/>
<path fill-rule="evenodd" clip-rule="evenodd" d="M18.8791 5.09139C17.4239 3.6362 15.0646 3.6362 13.6094 5.09139L10.8175 7.8806C10.7409 7.95764 10.7187 8.0735 10.7616 8.17337C10.804 8.27352 10.9031 8.3378 11.0118 8.33571H11.1103C11.6934 8.33465 12.2711 8.44765 12.8109 8.66841C12.9106 8.70942 13.0251 8.68628 13.101 8.60986L15.1051 6.60843C15.7291 5.98446 16.7407 5.98446 17.3647 6.60843C17.9887 7.2324 17.9887 8.24405 17.3647 8.86802L14.8682 11.3618L14.8469 11.3858L13.974 12.2534C13.3505 12.8761 12.3405 12.8761 11.717 12.2534C11.2969 11.858 10.6415 11.858 10.2213 12.2534C10.0394 12.4357 9.92969 12.6778 9.91257 12.9347C9.8931 13.2396 10.0055 13.5382 10.2213 13.7545C10.5294 14.0638 10.8898 14.3161 11.2859 14.4997C11.3418 14.5263 11.3977 14.5476 11.4536 14.5715C11.5094 14.5955 11.568 14.6141 11.6239 14.6354C11.6798 14.6567 11.7383 14.6753 11.7942 14.6913L11.9512 14.7339C12.0577 14.7605 12.1642 14.7818 12.2733 14.8004C12.4047 14.8199 12.5371 14.8324 12.6698 14.8377H12.8561H12.8721L13.0318 14.819C13.0903 14.8164 13.1516 14.8031 13.2208 14.8031H13.3112L13.4949 14.7765L13.5801 14.7605L13.7344 14.7286H13.7637C14.4175 14.5644 15.0144 14.2259 15.491 13.7491L18.879 10.3611C20.3343 8.90591 20.3343 6.54658 18.8791 5.09139Z" fill="#08A3A3"/>
</svg>
