<svg width="17" height="20" viewBox="0 0 17 20" fill="none" xmlns="http://www.w3.org/2000/svg">
<path fill-rule="evenodd" clip-rule="evenodd" d="M16.3953 1.28362C16.2349 1.05318 16.0188 0.884663 15.7476 0.777762C15.5749 0.70383 15.3939 0.666799 15.2047 0.666799V0.666626H2.27571C2.08658 0.666626 1.90575 0.703657 1.73299 0.777589C1.46163 0.884404 1.24567 1.05314 1.08532 1.28345C0.925011 1.51376 0.844727 1.76861 0.844727 2.0483V17.9504C0.844727 18.2301 0.925011 18.4849 1.08532 18.7154C1.24567 18.9457 1.46163 19.1144 1.73299 19.2212C1.90557 19.2951 2.08658 19.332 2.27571 19.332C2.66239 19.332 3.00354 19.1963 3.2997 18.9251L8.74025 13.694L14.1808 18.9252C14.4687 19.188 14.81 19.3196 15.2047 19.3196C15.4103 19.3196 15.5913 19.2869 15.7476 19.2211C16.0188 19.1143 16.2348 18.9457 16.3953 18.7151C16.5556 18.4849 16.6357 18.2301 16.6357 17.9503V2.04848C16.6357 1.76878 16.5554 1.51393 16.3953 1.28362ZM15.0567 17.5677L9.83826 12.559L8.74025 11.5106L7.64233 12.559L2.42396 17.5677V2.2459H15.0567V17.5677Z" fill="#1E1E1E"/>
</svg>
