<svg width="10" height="15" viewBox="0 0 10 15" fill="none" xmlns="http://www.w3.org/2000/svg">
<path fill-rule="evenodd" clip-rule="evenodd" d="M5 0.833374C2.24333 0.833374 0 3.09226 0 5.86948C0 9.8156 4.53 13.89 4.72278 14.0612C4.80222 14.1317 4.90111 14.1667 5 14.1667C5.09889 14.1667 5.19778 14.1317 5.27722 14.0617C5.47 13.89 10 9.8156 10 5.86948C10 3.09226 7.75667 0.833374 5 0.833374ZM5 8.61115C3.46833 8.61115 2.22222 7.36504 2.22222 5.83337C2.22222 4.30171 3.46833 3.0556 5 3.0556C6.53167 3.0556 7.77778 4.30171 7.77778 5.83337C7.77778 7.36504 6.53167 8.61115 5 8.61115Z" fill="#1E1E1E"/>
</svg>
