<svg width="20" height="14" viewBox="0 0 20 14" fill="none" xmlns="http://www.w3.org/2000/svg">
<path d="M18.4756 6.70693C18.4756 7.93773 17.4711 8.93945 16.2372 8.93945C15.0034 8.93945 14.0027 7.93773 14.0027 6.70693C14.0027 5.47101 15.0036 4.46929 16.2372 4.46929C17.4684 4.46913 18.4756 5.47272 18.4756 6.70693ZM3.57422 4.46917C2.34017 4.46917 1.33583 5.47089 1.33583 6.70681C1.33583 7.93761 2.34001 8.93933 3.57422 8.93933C4.80455 8.93933 5.80873 7.93761 5.80873 6.70681C5.80889 5.47276 4.80471 4.46917 3.57422 4.46917ZM9.90294 0C8.08116 0 6.59615 1.48223 6.59615 3.30572C6.59615 5.12888 8.07961 6.6139 9.90294 6.6139C11.7271 6.6139 13.2107 5.12888 13.2107 3.30572C13.2118 1.48223 11.7269 0 9.90294 0ZM19.8094 13.4881C19.8094 11.4543 18.2036 9.80378 16.2339 9.80378C15.8826 9.80378 15.5471 9.87296 15.2277 9.97084C15.6484 10.8143 15.9058 11.7549 15.9058 12.7667V14H19.8095V13.4881H19.8094ZM4.57765 9.97068C4.25952 9.8728 3.92727 9.80363 3.57593 9.80363C1.60354 9.80363 0 11.4571 0 13.488V13.9997H3.89948V12.7664C3.89932 11.7547 4.15851 10.8142 4.57761 9.97068H4.57765ZM4.71881 13.9995H15.0863V12.827C15.0863 9.88598 12.7591 7.4934 9.90273 7.4934C7.0417 7.4934 4.71881 9.8863 4.71881 12.827L4.71896 13.9995H4.71881Z" fill="#1E1E1E"/>
</svg>
