<svg width="26" height="26" viewBox="0 0 26 26" fill="none" xmlns="http://www.w3.org/2000/svg">
<path fill-rule="evenodd" clip-rule="evenodd" d="M21.5068 7.0651C23.2594 7.42737 24.5784 8.97849 24.5784 10.8383C24.5784 12.7441 23.1957 14.3258 21.3767 14.6345C21.1879 14.6677 21.0323 14.8029 20.9736 14.9866C20.6496 16.0121 19.6878 16.7571 18.5551 16.7571C18.0346 16.7571 17.5524 16.6015 17.1493 16.3336C16.9325 16.1907 16.6467 16.2188 16.4707 16.4075C15.5344 17.4255 14.1925 18.0607 12.7026 18.0607C10.8045 18.0607 9.14627 17.0275 8.26101 15.4917C8.11559 15.2391 7.79159 15.1574 7.54157 15.3054C7.03389 15.6014 6.44456 15.7723 5.81442 15.7723C4.44187 15.7723 3.25812 14.9636 2.71217 13.7977C1.42637 12.8997 0.584473 11.4072 0.584473 9.71834C0.584473 6.97836 2.77595 4.76648 5.51593 4.74352C5.94708 4.74097 6.36547 4.79199 6.76346 4.89149C7.00837 4.95271 7.26349 4.82515 7.36554 4.59555C8.48296 2.06732 11.0112 0.304443 13.9502 0.304443C17.6264 0.304443 20.6572 3.05973 21.0909 6.61609C21.1164 6.8406 21.2848 7.01918 21.5068 7.0651ZM20.3434 20.5711C20.3434 21.959 19.2184 23.084 17.8305 23.084C16.4427 23.084 15.3176 21.959 15.3176 20.5711C15.3176 19.1833 16.4427 18.0582 17.8305 18.0582C19.2184 18.0582 20.3434 19.1833 20.3434 20.5711ZM25.1856 23.7933C25.1856 24.8035 24.3667 25.6225 23.3564 25.6225C22.3462 25.6225 21.5272 24.8035 21.5272 23.7933C21.5272 22.783 22.3462 21.9641 23.3564 21.9641C24.3667 21.9641 25.1856 22.783 25.1856 23.7933Z" fill="#1E1E1E"/>
</svg>
