<svg width="28" height="28" viewBox="0 0 28 28" fill="none" xmlns="http://www.w3.org/2000/svg">
<path fill-rule="evenodd" clip-rule="evenodd" d="M10.6944 8.94453C10.2651 8.94453 9.91667 8.59608 9.91667 8.16675V7.29175H9.13889C8.44225 7.29175 7.875 7.859 7.875 8.55564V21.1945C7.875 21.8912 8.44225 22.4584 9.13889 22.4584H19.6389C20.3355 22.4584 20.9028 21.8912 20.9028 21.1945V8.55564C20.9028 7.859 20.3355 7.29175 19.6389 7.29175H18.8611V8.16675C18.8611 8.59608 18.5127 8.94453 18.0833 8.94453C17.654 8.94453 17.3056 8.59608 17.3056 8.16675V7.29175H15.1667V8.16675C15.1667 8.59608 14.8182 8.94453 14.3889 8.94453C13.9596 8.94453 13.6111 8.59608 13.6111 8.16675V7.29175H11.4722V8.16675C11.4722 8.59608 11.1238 8.94453 10.6944 8.94453ZM9.91667 5.54175V5.44453C9.91667 5.01519 10.2651 4.66675 10.6944 4.66675C11.1238 4.66675 11.4722 5.01519 11.4722 5.44453V5.54175H13.6111V5.44453C13.6111 5.01519 13.9596 4.66675 14.3889 4.66675C14.8182 4.66675 15.1667 5.01519 15.1667 5.44453V5.54175H17.3056V5.44453C17.3056 5.01519 17.654 4.66675 18.0833 4.66675C18.5127 4.66675 18.8611 5.01519 18.8611 5.44453V5.54175H19.6389C21.302 5.54175 22.6528 6.8925 22.6528 8.55564V21.1945C22.6528 22.8577 21.302 24.2084 19.6389 24.2084H9.13889C7.47575 24.2084 6.125 22.8577 6.125 21.1945V8.55564C6.125 6.8925 7.47575 5.54175 9.13889 5.54175H9.91667ZM14.7778 10.8889H10.8889C10.4595 10.8889 10.1111 11.2373 10.1111 11.6667C10.1111 12.096 10.4595 12.4444 10.8889 12.4444H14.7778C15.2071 12.4444 15.5555 12.096 15.5555 11.6667C15.5555 11.2373 15.2071 10.8889 14.7778 10.8889ZM10.8889 18.6668C10.4595 18.6668 10.1111 18.3184 10.1111 17.8891C10.1111 17.4597 10.4595 17.1113 10.8889 17.1113H18.6667C19.096 17.1113 19.4444 17.4597 19.4444 17.8891C19.4444 18.3184 19.096 18.6668 18.6667 18.6668H10.8889ZM10.8889 15.5556H18.6667C19.096 15.5556 19.4444 15.2072 19.4444 14.7779C19.4444 14.3485 19.096 14.0001 18.6667 14.0001H10.8889C10.4595 14.0001 10.1111 14.3485 10.1111 14.7779C10.1111 15.2072 10.4595 15.5556 10.8889 15.5556Z" fill="#1E1E1E"/>
</svg>
