<svg width="27" height="26" viewBox="0 0 27 26" fill="none" xmlns="http://www.w3.org/2000/svg">
<path fill-rule="evenodd" clip-rule="evenodd" d="M16.1665 9.33308C16.3846 9.27909 16.6093 9.39373 16.6935 9.60205L18.1776 13.3117C18.253 13.5166 18.4499 13.6514 18.6682 13.6474C18.8188 13.6366 18.9553 13.5547 19.0358 13.4268C19.1162 13.299 19.131 13.1405 19.0756 13L16.8639 7.319C16.5978 6.62575 15.9306 6.16937 15.188 6.17266C14.5478 6.17196 14.0289 5.65312 14.0282 5.01288V4.82406C14.0282 4.6454 14.1339 4.48368 14.2976 4.41202C14.9622 4.12123 15.5144 2.7567 15.3491 1.80462C15.1828 0.888602 14.3449 0.250886 13.4177 0.334507C12.4904 0.418128 11.7802 1.19545 11.7804 2.12646C11.7804 2.92579 12.2886 4.16193 12.8596 4.41202C13.0233 4.48368 13.129 4.6454 13.129 4.82406V5.01288C13.1283 5.65312 12.6095 6.17196 11.9692 6.17266C11.2267 6.16937 10.5595 6.62575 10.2934 7.319L8.09592 12.9698C8.00134 13.1914 8.07912 13.4489 8.28054 13.5811C8.40201 13.6524 8.54865 13.6668 8.68168 13.6206C8.81014 13.5749 8.91271 13.4761 8.96323 13.3495L10.4637 9.60121C10.5477 9.39297 10.7724 9.27856 10.9902 9.33312C11.208 9.38767 11.3522 9.59449 11.3281 9.81772L11.2291 10.7048C10.9999 12.777 10.9718 14.8665 11.1451 16.9442L11.7787 24.5675C11.7893 24.6929 11.7469 24.8169 11.6617 24.9095C11.5765 25.0021 11.4564 25.0547 11.3306 25.0546C11.0096 25.0548 10.7129 25.2261 10.5523 25.504H12.2726L13.1311 16.9173C13.1545 16.6877 13.3478 16.513 13.5786 16.513C13.8094 16.513 14.0028 16.6877 14.0261 16.9173L14.8846 25.504H16.605C16.4443 25.2261 16.1477 25.0548 15.8266 25.0546C15.7008 25.0547 15.5807 25.0021 15.4956 24.9095C15.4104 24.8169 15.3679 24.6929 15.3785 24.5675L16.0125 16.9442C16.1858 14.866 16.1577 12.7759 15.9286 10.7031L15.83 9.81688C15.8062 9.59435 15.9496 9.38818 16.1665 9.33308ZM25.7472 5.78285H20.2924C20.1811 5.78287 20.0744 5.82709 19.9958 5.90579L18.3174 7.58419C18.2083 7.68954 18.1645 7.84555 18.2029 7.99225C18.2413 8.13896 18.3559 8.25353 18.5026 8.29193C18.6493 8.33033 18.8053 8.28658 18.9107 8.1775L20.4661 6.62205H25.7472C25.979 6.62205 26.1668 6.43419 26.1668 6.20245C26.1668 5.97071 25.979 5.78285 25.7472 5.78285ZM20.0465 18.3708H25.7472C25.979 18.3708 26.1668 18.5587 26.1668 18.7904C26.1668 19.0222 25.979 19.21 25.7472 19.21H19.8728C19.7615 19.21 19.6548 19.1658 19.5762 19.0871L17.4782 16.9891C17.3192 16.8245 17.3214 16.5627 17.4833 16.4009C17.6451 16.239 17.9068 16.2368 18.0715 16.3958L20.0465 18.3708ZM1.41043 11.6572H7.28483C7.51657 11.6572 7.70443 11.4694 7.70443 11.2376C7.70443 11.0059 7.51657 10.818 7.28483 10.818H1.41043C1.1787 10.818 0.990835 11.0059 0.990835 11.2376C0.990835 11.4694 1.1787 11.6572 1.41043 11.6572ZM1.66219 10.3145C1.54587 10.4018 1.39266 10.4226 1.25728 10.3695C1.12187 10.3164 1.02359 10.197 0.997548 10.054C0.97489 9.92891 0.453747 6.97619 1.57827 5.62676C1.94833 5.17675 2.50653 4.92432 3.08883 4.94365C3.32057 4.94365 3.50843 5.13151 3.50843 5.36325V6.45924L3.92803 6.31952V4.10445C3.92803 3.87271 4.11589 3.68485 4.34763 3.68485C4.57937 3.68485 4.76723 3.87271 4.76723 4.10445V6.31952L5.18683 6.45924V5.36325C5.18683 5.13151 5.37469 4.94365 5.60643 4.94365C6.18815 4.92485 6.74562 5.17723 7.11531 5.62676C8.2432 6.97619 7.72037 9.92807 7.69772 10.054C7.6717 10.197 7.57344 10.3165 7.43804 10.3695C7.30264 10.4226 7.1494 10.4018 7.03307 10.3145L5.35467 9.05573C5.24901 8.97648 5.18683 8.85212 5.18683 8.72005V7.34418L4.34763 7.06431L3.50843 7.34418V8.72005C3.50843 8.85212 3.44625 8.97648 3.34059 9.05573L1.66219 10.3145ZM20.712 4.10445C20.712 4.33619 20.8999 4.52405 21.1316 4.52405V4.94365C21.1316 5.17539 21.3195 5.36325 21.5512 5.36325C21.783 5.36325 21.9708 5.17539 21.9708 4.94365V4.29495L25.0658 1.58685H25.3276C25.5594 1.58685 25.7472 1.39899 25.7472 1.16725C25.7472 0.935512 25.5594 0.747651 25.3276 0.747651H25.0817L24.7851 0.450994C24.6204 0.291978 24.3587 0.294252 24.1969 0.456106C24.035 0.617959 24.0327 0.879666 24.1918 1.04431L24.2941 1.14669L21.3935 3.68485H21.1316C20.8999 3.68485 20.712 3.87271 20.712 4.10445ZM21.1316 17.5316V14.5944C21.1316 14.4542 21.2017 14.3232 21.3183 14.2453L22.1857 13.6671C21.7319 13.4684 21.479 12.9794 21.5791 12.4943C21.6791 12.0092 22.1049 11.6602 22.6002 11.6572H23.126C23.5731 11.6562 24.0021 11.8344 24.3168 12.152L24.394 12.2292C25.001 12.835 25.2642 13.7046 25.0952 14.5454C24.9676 15.1821 24.4094 15.6411 23.76 15.6434C23.6468 15.6432 23.5341 15.6291 23.4243 15.6015C22.9057 15.4719 22.5107 15.051 22.4143 14.5252L21.9708 14.8189V17.5316C21.9708 17.7634 21.783 17.9512 21.5512 17.9512C21.3195 17.9512 21.1316 17.7634 21.1316 17.5316Z" fill="#1E1E1E"/>
</svg>
