<svg width="16" height="16" viewBox="0 0 16 16" fill="none" xmlns="http://www.w3.org/2000/svg">
<path fill-rule="evenodd" clip-rule="evenodd" d="M14.9903 11.4941C15.3822 11.6391 15.6945 11.9432 15.8499 12.3311C16.0042 12.7184 15.9894 13.1527 15.809 13.5286C15.2798 14.5271 14.4193 15.3102 13.3755 15.7433C13.3616 15.7466 13.3519 15.7496 13.3423 15.7529C12.8961 15.8905 12.4315 15.9589 11.9645 15.9558C10.7219 15.9558 9.29595 15.5215 7.70569 14.6584C5.00306 13.1929 2.78378 10.9747 1.31709 8.27275C0.11294 6.058 -0.257235 4.16031 0.219179 2.63313C0.222229 2.62288 0.22658 2.61306 0.232127 2.60392C0.662217 1.55922 1.44466 0.698192 2.44355 0.170386C2.81879 -0.0121686 3.25365 -0.0278376 3.64106 0.127237C4.02846 0.282312 4.3324 0.593719 4.47802 0.984772L5.57361 3.92061C5.77333 4.46283 5.64016 5.07166 5.23232 5.48099L4.4259 6.28907C4.18794 6.52468 4.15022 6.89584 4.33593 7.1745C5.55606 8.90998 7.06803 10.4206 8.80459 11.6392C9.08128 11.8257 9.45145 11.7891 9.68638 11.5522L10.4945 10.7441C10.904 10.3367 11.5127 10.2037 12.0548 10.4032L14.9903 11.4941ZM9.03201 5.99426V5.19913C8.61476 5.08922 8.32395 4.71197 8.32386 4.2805V1.42832C8.32378 1.17647 8.42379 0.934904 8.60187 0.756817C8.77996 0.578731 9.02152 0.478722 9.27337 0.47881H13.9731C14.225 0.478722 14.4666 0.57872 14.6447 0.756797C14.8229 0.934874 14.9229 1.17644 14.9229 1.42832V4.28182C14.9229 4.53371 14.8229 4.77527 14.6447 4.95334C14.4666 5.13142 14.225 5.23142 13.9731 5.23133H11.2886L9.38293 6.21006C9.34869 6.2264 9.31131 6.23512 9.27337 6.23562C9.14007 6.23562 9.03201 6.12756 9.03201 5.99426ZM13.4071 1.87917H9.9211C9.83267 1.87589 9.74952 1.92119 9.70434 1.99727C9.65915 2.07335 9.65915 2.16804 9.70434 2.24412C9.74952 2.3202 9.83267 2.3655 9.9211 2.36222H13.4071C13.537 2.35741 13.6398 2.25069 13.6398 2.1207C13.6398 1.9907 13.537 1.88399 13.4071 1.87917ZM9.9211 3.30111H13.4071C13.5404 3.30111 13.6484 3.40917 13.6484 3.54247C13.6484 3.67577 13.5404 3.78383 13.4071 3.78383H9.9211C9.7878 3.78383 9.67974 3.67577 9.67974 3.54247C9.67974 3.40917 9.7878 3.30111 9.9211 3.30111Z" fill="#1E1E1E"/>
</svg>
