<svg width="26" height="26" viewBox="0 0 26 26" fill="none" xmlns="http://www.w3.org/2000/svg">
<path fill-rule="evenodd" clip-rule="evenodd" d="M25.3754 6.47276L19.6271 0.723876C19.3015 0.397669 18.8681 0.218018 18.4065 0.218018C17.4554 0.218018 16.6817 0.991708 16.6817 1.94284C16.6817 2.28921 16.784 2.6201 16.9735 2.90206C11.9767 7.92156 8.87335 11.4129 8.65462 15.8181L3.54909 20.9237C3.43332 20.9052 3.31166 20.9217 3.2009 20.9765L0.901114 22.1264C0.736016 22.2089 0.620399 22.3661 0.591185 22.5486C0.560839 22.731 0.621531 22.9164 0.751755 23.0472L3.05154 25.347C3.16047 25.4559 3.30643 25.5154 3.45806 25.5154C3.4884 25.5154 3.51983 25.5131 3.55012 25.5081C3.73203 25.4784 3.88926 25.3627 3.97232 25.1977L5.12219 22.8979C5.1777 22.7873 5.19447 22.6653 5.1756 22.5491L10.2795 17.4452C14.6868 17.2368 18.036 14.2646 23.1961 9.12597C23.4775 9.31516 23.8087 9.41709 24.1559 9.41709C25.107 9.41709 25.8807 8.6434 25.8807 7.69227C25.8808 7.23185 25.701 6.79838 25.3754 6.47276ZM11.0311 15.0671C11.2765 13.5602 11.9977 12.1171 13.2113 10.481L15.6181 12.8874C13.9817 14.1011 12.5384 14.8221 11.0311 15.0671ZM17.4166 11.4339L14.6646 8.68237C15.721 7.47057 17.0312 6.11066 18.5782 4.55368L21.545 7.52076C19.9882 9.06754 18.6283 10.3776 17.4166 11.4339Z" fill="#1E1E1E"/>
</svg>
