<svg width="28" height="28" viewBox="0 0 28 28" fill="none" xmlns="http://www.w3.org/2000/svg">
<path fill-rule="evenodd" clip-rule="evenodd" d="M5.75 7H22.25C23.4926 7 24.5 8.00736 24.5 9.25V19.75C24.5 20.9926 23.4926 22 22.25 22H5.75C4.50736 22 3.5 20.9926 3.5 19.75V9.25C3.5 8.00736 4.50736 7 5.75 7ZM22.25 20.5C22.6642 20.5 23 20.1642 23 19.75H23V17.8105L17.75 12.5605L11.5303 18.7802C11.2374 19.073 10.7626 19.073 10.4698 18.7802L8 16.3105L4.99998 19.3105V19.75C4.99998 20.1642 5.33577 20.5 5.75 20.5H22.25ZM18.2802 10.9698L23 15.6895H23V9.25C23 8.83577 22.6642 8.49998 22.25 8.49998H5.75C5.33577 8.49998 4.99998 8.83577 4.99998 9.25V17.1895L7.46975 14.7197C7.7626 14.4269 8.23739 14.4269 8.53024 14.7197L11 17.1895L17.2198 10.9698C17.5126 10.6769 17.9874 10.6769 18.2802 10.9698ZM7.99998 12.25C7.99998 11.0073 9.00734 9.99997 10.25 9.99997C11.4926 9.99997 12.5 11.0073 12.5 12.25C12.5 13.4926 11.4926 14.5 10.25 14.5C9.00734 14.5 7.99998 13.4926 7.99998 12.25ZM9.49997 12.25C9.49997 12.6642 9.83575 13 10.25 13C10.6642 13 11 12.6642 11 12.25C11 11.8357 10.6642 11.5 10.25 11.5C9.83575 11.5 9.49997 11.8357 9.49997 12.25Z" fill="black"/>
</svg>
