<?xml version="1.0" encoding="UTF-8"?>
<svg width="18px" height="15px" viewBox="0 0 18 15" version="1.1" xmlns="http://www.w3.org/2000/svg" xmlns:xlink="http://www.w3.org/1999/xlink">
    <!-- Generator: Sketch 54.1 (76490) - https://sketchapp.com -->
    <title>icn/bookmark/on</title>
    <desc>Created with Sketch.</desc>
    <g id="Wesite-15.0-最新活動-(update-22Mar)" stroke="none" stroke-width="1" fill="none" fill-rule="evenodd">
        <g id="Page/15.0最新活動/15.2-Project-Details" transform="translate(-862.000000, -526.000000)" fill="#08A3A3">
            <g id="Bookmark-Copy-2" transform="translate(859.000000, 521.000000)">
                <g id="icn/print">
                    <path d="M4.36363636,7.72727273 L5.72727273,7.72727273 L5.72727273,5.68181818 C5.72727273,5.30545455 6.03272727,5 6.40909091,5 L17.3181818,5 C17.6945455,5 18,5.30545455 18,5.68181818 L18,7.72727273 L19.3636364,7.72727273 C20.1156818,7.72727273 20.7272727,8.33886364 20.7272727,9.09090909 L20.7272727,15.9090909 C20.7272727,16.2854545 20.4218182,16.5909091 20.0454545,16.5909091 C19.6690909,16.5909091 19.3636364,16.2854545 19.3636364,15.9090909 C19.3639773,15.9090909 19.3643181,15.9090912 19.3646589,15.9090917 L19.3636364,9.09090909 L4.36363636,9.09090909 L4.36363636,15.9090909 L5.72727273,15.9090909 L5.72727273,14.5454545 C5.35090909,14.5454545 5.04545455,14.24 5.04545455,13.8636364 C5.04545455,13.4872727 5.35090909,13.1818182 5.72727273,13.1818182 L18,13.1818182 C18.3763636,13.1818182 18.6818182,13.4872727 18.6818182,13.8636364 C18.6818182,14.24 18.3763636,14.5454545 18,14.5454545 L18,15.9090909 L19.3636364,15.9090909 C18.9872727,15.9090909 18.6818182,16.2145455 18.6818182,16.5909091 C18.6818182,16.9672727 18.9872727,17.2727273 19.3636364,17.2727273 L18,17.2727273 L18,19.3181818 C18,19.6945455 17.6945455,20 17.3181818,20 L6.40909091,20 C6.03272727,20 5.72727273,19.6945455 5.72727273,19.3181818 L5.72727273,17.2727273 L4.36363636,17.2727273 C3.61159091,17.2727273 3,16.6611364 3,15.9090909 L3,9.09090909 C3,9.46727273 3.30511364,9.77272727 3.68147727,9.77272727 C4.05818182,9.77272727 4.36261364,9.46727273 4.36261364,9.09090909 L4.36363636,9.09090909 C4.74,9.09090909 5.04545455,8.78545455 5.04545455,8.40909091 C5.04545455,8.03272727 4.74,7.72727273 4.36363636,7.72727273 Z M7.09090909,7.72727273 L16.6363636,7.72727273 L16.6363636,6.36363636 L7.09090909,6.36363636 L7.09090909,7.72727273 Z M7.09090909,14.5454545 L7.09090909,18.6363636 L16.6363636,18.6363636 L16.6363636,14.5454545 L7.09090909,14.5454545 Z" id="Combined-Shape"></path>
                </g>
            </g>
        </g>
    </g>
</svg>