<svg width="16" height="16" viewBox="0 0 16 16" fill="none" xmlns="http://www.w3.org/2000/svg">
<path d="M8 0C6.41775 0 4.87103 0.469192 3.55544 1.34824C2.23985 2.22729 1.21447 3.47672 0.608967 4.93853C0.00346626 6.40034 -0.15496 8.00887 0.153721 9.56072C0.462403 11.1126 1.22433 12.538 2.34315 13.6569C3.46197 14.7757 4.88743 15.5376 6.43928 15.8463C7.99112 16.155 9.59965 15.9965 11.0615 15.391C12.5233 14.7855 13.7727 13.7602 14.6517 12.4446C15.5308 11.129 16 9.58225 16 8C16 5.87827 15.1571 3.84344 13.6568 2.34315C12.1566 0.842854 10.1217 0 8 0ZM8 14.8571C6.64378 14.8571 5.31803 14.455 4.19038 13.7015C3.06273 12.948 2.18383 11.8771 1.66483 10.6241C1.14583 9.37113 1.01003 7.99239 1.27462 6.66224C1.5392 5.33208 2.19228 4.11026 3.15127 3.15127C4.11026 2.19228 5.33208 1.5392 6.66224 1.27461C7.99239 1.01003 9.37113 1.14582 10.6241 1.66483C11.8771 2.18383 12.948 3.06272 13.7015 4.19037C14.455 5.31803 14.8571 6.64378 14.8571 8C14.8571 9.81863 14.1347 11.5628 12.8487 12.8487C11.5628 14.1347 9.81862 14.8571 8 14.8571ZM5.71428 8C5.71428 8.22603 5.64726 8.44699 5.52168 8.63494C5.3961 8.82288 5.21761 8.96936 5.00878 9.05586C4.79995 9.14236 4.57016 9.16499 4.34847 9.1209C4.12678 9.0768 3.92314 8.96795 3.76331 8.80812C3.60348 8.64829 3.49463 8.44465 3.45053 8.22296C3.40643 8.00127 3.42907 7.77148 3.51557 7.56265C3.60207 7.35382 3.74855 7.17533 3.93649 7.04975C4.12443 6.92417 4.34539 6.85714 4.57143 6.85714C4.87453 6.85714 5.16522 6.97755 5.37955 7.19188C5.59388 7.4062 5.71428 7.69689 5.71428 8ZM9.14285 8C9.14285 8.22603 9.07583 8.44699 8.95025 8.63494C8.82467 8.82288 8.64618 8.96936 8.43735 9.05586C8.22852 9.14236 7.99873 9.16499 7.77704 9.1209C7.55534 9.0768 7.35171 8.96795 7.19188 8.80812C7.03204 8.64829 6.9232 8.44465 6.8791 8.22296C6.835 8.00127 6.85764 7.77148 6.94414 7.56265C7.03064 7.35382 7.17712 7.17533 7.36506 7.04975C7.553 6.92417 7.77396 6.85714 8 6.85714C8.3031 6.85714 8.59379 6.97755 8.80812 7.19188C9.02244 7.4062 9.14285 7.69689 9.14285 8ZM12.5714 8C12.5714 8.22603 12.5044 8.44699 12.3788 8.63494C12.2532 8.82288 12.0747 8.96936 11.8659 9.05586C11.6571 9.14236 11.4273 9.16499 11.2056 9.1209C10.9839 9.0768 10.7803 8.96795 10.6204 8.80812C10.4606 8.64829 10.3518 8.44465 10.3077 8.22296C10.2636 8.00127 10.2862 7.77148 10.3727 7.56265C10.4592 7.35382 10.6057 7.17533 10.7936 7.04975C10.9816 6.92417 11.2025 6.85714 11.4286 6.85714C11.7317 6.85714 12.0224 6.97755 12.2367 7.19188C12.451 7.4062 12.5714 7.69689 12.5714 8Z" fill="#1E1E1E"/>
</svg>
