<?xml version="1.0" encoding="UTF-8"?>
<svg width="14px" height="16px" viewBox="0 0 14 16" version="1.1" xmlns="http://www.w3.org/2000/svg" xmlns:xlink="http://www.w3.org/1999/xlink">
    <!-- Generator: Sketch 54.1 (76490) - https://sketchapp.com -->
    <title>Shape</title>
    <desc>Created with Sketch.</desc>
    <g id="Symbols" stroke="none" stroke-width="1" fill="none" fill-rule="evenodd">
        <g id="icn/bookmark/on" transform="translate(-5.000000, -4.000000)" fill="#000000">
            <g id="bookmark-white" transform="translate(5.000000, 4.000000)">
                <path d="M13.3387407,0.528851852 C13.2012222,0.331333333 13.016037,0.186888889 12.7835926,0.0952592593 C12.6355556,0.0318888889 12.4804074,0.000148148148 12.3182222,0.000148148148 L12.3182222,0 L1.23622222,0 C1.07411111,0 0.919111111,0.0317407407 0.771037037,0.0951111111 C0.538444444,0.186666667 0.353333333,0.331296296 0.215888889,0.528703704 C0.0784814815,0.726111111 0.00966666667,0.944555556 0.00966666667,1.1842963 L0.00966666667,14.8146296 C0.00966666667,15.0544444 0.0784814815,15.2728148 0.215888889,15.4704074 C0.353333333,15.6677778 0.538444444,15.8123704 0.771037037,15.9038889 C0.918962963,15.9672593 1.07411111,15.9989259 1.23622222,15.9989259 C1.56766667,15.9989259 1.86007407,15.8825556 2.11392593,15.6501111 L6.77725926,11.1663333 L11.4405926,15.6502222 C11.6873704,15.8754444 11.9799259,15.9882593 12.3181852,15.9882593 C12.4944815,15.9882593 12.6495926,15.9602593 12.7835556,15.9038519 C13.016,15.8123333 13.2011852,15.6677407 13.3387037,15.4701111 C13.4761111,15.2727778 13.5447778,15.0543704 13.5447778,14.8145926 L13.5447778,1.18444444 C13.5448148,0.944703704 13.476,0.726259259 13.3387407,0.528851852 Z M12.1913333,14.4866296 L7.71840741,10.1934815 L6.77725926,9.29481481 L5.83618519,10.1934815 L1.3632963,14.4866296 L1.3632963,1.35366667 L12.1913333,1.35366667 L12.1913333,14.4866296 L12.1913333,14.4866296 Z" id="Shape"></path>
            </g>
        </g>
    </g>
</svg>