<svg width="29" height="23" viewBox="0 0 29 23" fill="none" xmlns="http://www.w3.org/2000/svg">
<path fill-rule="evenodd" clip-rule="evenodd" d="M25.6574 1.88363V17.1763C25.6574 17.737 25.1994 18.1944 24.6364 18.1958C22.2626 18.2015 18.2854 18.6962 15.5418 21.5674V5.56339C15.5418 5.37329 15.5902 5.19471 15.6819 5.04694C17.9338 1.42043 22.2612 0.869431 24.6404 0.86377H24.6429C24.9121 0.86377 25.1658 0.968845 25.3573 1.1598C25.5508 1.35288 25.6574 1.60995 25.6574 1.88363ZM4.85724 0.863865H4.85964C7.23886 0.869431 11.5663 1.42043 13.8181 5.04694C13.9098 5.19471 13.9583 5.37329 13.9583 5.56339V21.5675C11.2147 18.6963 7.23751 18.2016 4.86367 18.1959C4.30058 18.1945 3.84256 17.7371 3.84256 17.1763V1.88372C3.84256 1.61005 3.94917 1.35297 4.14272 1.1599C4.33416 0.968941 4.58769 0.863865 4.85724 0.863865ZM27.9802 4.39057H27.2408V17.1763C27.2408 18.6081 26.0742 19.7757 24.6402 19.7792C22.6266 19.784 19.3066 20.1777 16.9553 22.4031C21.0219 21.4075 25.3088 22.0547 27.7519 22.6115C28.057 22.681 28.3722 22.6092 28.6166 22.4144C28.8602 22.2201 28.9999 21.9296 28.9999 21.6178V5.41024C29 4.84801 28.5425 4.39057 27.9802 4.39057ZM2.25913 4.39057V17.1763C2.25913 18.6081 3.42581 19.7757 4.85973 19.7791C6.87325 19.7839 10.1933 20.1776 12.5445 22.4029C8.47808 21.4072 4.19109 22.0543 1.74795 22.6112C1.44242 22.6809 1.12748 22.6088 0.883263 22.4141C0.639717 22.2198 0.5 21.9294 0.5 21.6175V5.41024C0.5 4.84801 0.957535 4.39057 1.51967 4.39057H2.25913Z" fill="#1E1E1E"/>
</svg>
