<svg width="26" height="26" viewBox="0 0 26 26" fill="none" xmlns="http://www.w3.org/2000/svg">
<path fill-rule="evenodd" clip-rule="evenodd" d="M24.1352 13.5307L25.7353 15.3752C25.9257 15.5948 25.9705 15.9053 25.8498 16.1697C25.7292 16.4341 25.4653 16.6038 25.1747 16.6038H17.7528C13.2511 16.6038 9.58872 12.9414 9.58872 8.4397C9.58872 3.93803 13.2511 0.275635 17.7528 0.275635C22.2545 0.275635 25.9168 3.93803 25.9168 8.4397C25.9168 10.3043 25.2885 12.088 24.1352 13.5307ZM17.0106 12.7444C17.0106 13.1543 17.3429 13.4866 17.7528 13.4866C18.1627 13.4866 18.495 13.1543 18.495 12.7444C18.495 12.3345 18.1627 12.0022 17.7528 12.0022C17.3429 12.0022 17.0106 12.3345 17.0106 12.7444ZM18.495 8.93874C18.9953 8.80287 19.4561 8.53168 19.8177 8.15079C20.3607 7.57886 20.6373 6.8293 20.5963 6.0403C20.5194 4.55825 19.296 3.37387 17.8112 3.34394C16.3709 3.3144 15.1319 4.36845 14.9329 5.79459C14.9147 5.92502 14.9055 6.05826 14.9055 6.19077C14.9055 6.60066 15.2378 6.93296 15.6476 6.93296C16.0575 6.93296 16.3898 6.60066 16.3898 6.19077C16.3898 6.12665 16.3942 6.06237 16.403 5.99973C16.4969 5.32701 17.0748 4.82772 17.7534 4.82772L17.7813 4.82801C18.4918 4.84231 19.0772 5.40865 19.114 6.11724C19.1336 6.49571 19.0012 6.85493 18.7413 7.12875C18.481 7.40281 18.13 7.55377 17.7528 7.55377C17.3429 7.55377 17.0106 7.88608 17.0106 8.29596V10.4973C17.0106 10.9072 17.3429 11.2395 17.7528 11.2395C18.1627 11.2395 18.495 10.9072 18.495 10.4973V8.93874ZM6.27361 16.7027H11.2215C11.5709 16.7027 11.8631 16.461 11.942 16.1359C13.3435 17.1966 15.0421 17.8844 16.8893 18.049C16.579 22.2697 13.0461 25.609 8.74757 25.609H1.3257C1.03506 25.609 0.771183 25.4393 0.650504 25.1749C0.529824 24.9105 0.574603 24.6 0.765048 24.3804L2.3651 22.5359C1.21184 21.0932 0.583509 19.3095 0.583509 17.4449C0.583509 13.1465 3.92281 9.61344 8.14343 9.30321C8.34808 11.5997 9.36106 13.6669 10.8947 15.2183H6.27361C5.86373 15.2183 5.53142 15.5506 5.53142 15.9605C5.53142 16.3704 5.86373 16.7027 6.27361 16.7027ZM6.27361 19.6715H11.2215C11.6314 19.6715 11.9637 19.3392 11.9637 18.9293C11.9637 18.5194 11.6314 18.1871 11.2215 18.1871H6.27361C5.86373 18.1871 5.53143 18.5194 5.53143 18.9293C5.53143 19.3392 5.86373 19.6715 6.27361 19.6715Z" fill="#1E1E1E"/>
</svg>
