<svg width="20" height="21" viewBox="0 0 20 21" fill="none" xmlns="http://www.w3.org/2000/svg">
<path fill-rule="evenodd" clip-rule="evenodd" d="M9.99968 3.83337C6.32375 3.83337 3.33325 6.82387 3.33325 10.4998C3.33325 14.1758 6.32375 17.1662 9.99968 17.1662C13.6756 17.1662 16.6661 14.1757 16.6661 10.4998C16.6661 6.82387 13.6756 3.83337 9.99968 3.83337ZM9.99968 15.7091C7.1272 15.7091 4.79039 13.3723 4.79039 10.4998C4.79039 7.62747 7.1272 5.29052 9.99968 5.29052C12.8722 5.29052 15.209 7.62747 15.209 10.4998C15.209 13.3723 12.8722 15.7091 9.99968 15.7091ZM10.5767 7.71375V10.5078L12.5147 12.4457C12.7353 12.6662 12.7352 13.0238 12.5147 13.2444C12.2943 13.465 11.9367 13.465 11.7161 13.2444L9.61266 11.1411C9.49537 11.0238 9.44247 10.8679 9.44989 10.7143C9.4497 10.7104 9.44916 10.7065 9.44861 10.7026C9.44794 10.6979 9.44728 10.6931 9.44728 10.6882V7.71375C9.44728 7.40178 9.70011 7.14897 10.0121 7.14897C10.3239 7.14897 10.5767 7.40178 10.5767 7.71375Z" fill="#1E1E1E"/>
</svg>
