<svg width="26" height="26" viewBox="0 0 26 26" fill="none" xmlns="http://www.w3.org/2000/svg">
<path fill-rule="evenodd" clip-rule="evenodd" d="M15.4165 9.27547C15.6346 9.22148 15.8593 9.33612 15.9435 9.54443L17.4276 13.2541C17.503 13.459 17.6999 13.5937 17.9182 13.5898C18.0688 13.579 18.2053 13.497 18.2858 13.3692C18.3662 13.2414 18.381 13.0829 18.3256 12.9423L16.1139 7.26139C15.8478 6.56813 15.1806 6.11176 14.438 6.11504C13.7978 6.11435 13.2789 5.5955 13.2782 4.95527V4.76645C13.2782 4.58779 13.3839 4.42606 13.5476 4.3544C14.2122 4.06362 14.7644 2.69908 14.5991 1.74701C14.4328 0.830984 13.5949 0.193269 12.6677 0.27689C11.7404 0.360511 11.0302 1.13783 11.0304 2.06884C11.0304 2.86818 11.5386 4.10432 12.1096 4.3544C12.2733 4.42606 12.379 4.58779 12.379 4.76645V4.95527C12.3783 5.5955 11.8595 6.11435 11.2192 6.11504C10.4767 6.11176 9.80948 6.56813 9.54336 7.26139L7.34592 12.9121C7.25134 13.1337 7.32912 13.3913 7.53054 13.5235C7.65201 13.5948 7.79865 13.6092 7.93168 13.5629C8.06014 13.5173 8.16271 13.4185 8.21323 13.2919L9.71372 9.54359C9.7977 9.33536 10.0224 9.22095 10.2402 9.2755C10.458 9.33006 10.6022 9.53687 10.5781 9.7601L10.4791 10.6471C10.2499 12.7194 10.2218 14.8089 10.3951 16.8866L11.0287 24.5099C11.0393 24.6352 10.9969 24.7593 10.9117 24.8519C10.8265 24.9445 10.7064 24.9971 10.5806 24.997C10.2596 24.9972 9.96293 25.1685 9.80225 25.4464H11.5226L12.3811 16.8597C12.4045 16.6301 12.5978 16.4554 12.8286 16.4554C13.0594 16.4554 13.2528 16.6301 13.2761 16.8597L14.1346 25.4464H15.855C15.6943 25.1685 15.3977 24.9972 15.0766 24.997C14.9508 24.9971 14.8307 24.9445 14.7456 24.8519C14.6604 24.7593 14.6179 24.6352 14.6285 24.5099L15.2625 16.8866C15.4358 14.8084 15.4077 12.7183 15.1786 10.6455L15.08 9.75926C15.0562 9.53674 15.1996 9.33056 15.4165 9.27547ZM24.9972 5.72523H19.5424C19.4311 5.72525 19.3244 5.76948 19.2458 5.84817L17.5674 7.52657C17.4583 7.63192 17.4145 7.78793 17.4529 7.93464C17.4913 8.08134 17.6059 8.19591 17.7526 8.23431C17.8993 8.27271 18.0553 8.22896 18.1607 8.11989L19.7161 6.56443H24.9972C25.229 6.56443 25.4168 6.37657 25.4168 6.14483C25.4168 5.91309 25.229 5.72523 24.9972 5.72523ZM19.2965 18.3132H24.9972C25.229 18.3132 25.4168 18.5011 25.4168 18.7328C25.4168 18.9646 25.229 19.1524 24.9972 19.1524H19.1228C19.0115 19.1524 18.9048 19.1082 18.8262 19.0295L16.7282 16.9315C16.5692 16.7668 16.5714 16.5051 16.7333 16.3433C16.8951 16.1814 17.1568 16.1791 17.3215 16.3382L19.2965 18.3132ZM0.660435 11.5996H6.53483C6.76657 11.5996 6.95443 11.4118 6.95443 11.18C6.95443 10.9483 6.76657 10.7604 6.53483 10.7604H0.660435C0.428696 10.7604 0.240835 10.9483 0.240835 11.18C0.240835 11.4118 0.428696 11.5996 0.660435 11.5996ZM0.912194 10.2569C0.795865 10.3442 0.642659 10.365 0.507281 10.3119C0.37187 10.2588 0.273592 10.1394 0.247548 9.99634C0.22489 9.8713 -0.296253 6.91857 0.828274 5.56914C1.19833 5.11914 1.75653 4.86671 2.33883 4.88603C2.57057 4.88603 2.75843 5.07389 2.75843 5.30563V6.40163L3.17803 6.2619V4.04683C3.17803 3.81509 3.36589 3.62723 3.59763 3.62723C3.82937 3.62723 4.01723 3.81509 4.01723 4.04683V6.2619L4.43683 6.40163V5.30563C4.43683 5.07389 4.62469 4.88603 4.85643 4.88603C5.43815 4.86723 5.99562 5.11961 6.36531 5.56914C7.4932 6.91857 6.97037 9.87046 6.94772 9.99634C6.9217 10.1394 6.82344 10.2588 6.68804 10.3119C6.55264 10.365 6.3994 10.3442 6.28307 10.2569L4.60467 8.99811C4.49901 8.91887 4.43683 8.7945 4.43683 8.66243V7.28656L3.59763 7.00669L2.75843 7.28656V8.66243C2.75843 8.7945 2.69625 8.91887 2.59059 8.99811L0.912194 10.2569ZM19.962 4.04683C19.962 4.27857 20.1499 4.46643 20.3816 4.46643V4.88603C20.3816 5.11777 20.5695 5.30563 20.8012 5.30563C21.033 5.30563 21.2208 5.11777 21.2208 4.88603V4.23733L24.3158 1.52923H24.5776C24.8094 1.52923 24.9972 1.34137 24.9972 1.10963C24.9972 0.877895 24.8094 0.690034 24.5776 0.690034H24.3317L24.0351 0.393377C23.8704 0.23436 23.6087 0.236635 23.4469 0.398488C23.285 0.560342 23.2827 0.822049 23.4418 0.986691L23.5441 1.08907L20.6435 3.62723H20.3816C20.1499 3.62723 19.962 3.81509 19.962 4.04683ZM20.3816 17.474V14.5368C20.3816 14.3966 20.4517 14.2656 20.5683 14.1877L21.4357 13.6095C20.9819 13.4108 20.729 12.9218 20.8291 12.4367C20.9291 11.9516 21.3549 11.6026 21.8502 11.5996H22.376C22.8231 11.5985 23.2521 11.7767 23.5668 12.0943L23.644 12.1715C24.251 12.7774 24.5142 13.647 24.3452 14.4877C24.2176 15.1245 23.6594 15.5835 23.01 15.5858C22.8968 15.5856 22.7841 15.5715 22.6743 15.5439C22.1557 15.4143 21.7607 14.9934 21.6643 14.4676L21.2208 14.7613V17.474C21.2208 17.7058 21.033 17.8936 20.8012 17.8936C20.5695 17.8936 20.3816 17.7058 20.3816 17.474Z" fill="#1E1E1E"/>
</svg>
