<svg width="26" height="26" viewBox="0 0 26 26" fill="none" xmlns="http://www.w3.org/2000/svg">
<path fill-rule="evenodd" clip-rule="evenodd" d="M22.1912 6.46883C19.883 3.52235 15.4872 0.246826 11.2162 0.246826C7.04559 0.246826 2.6454 3.40013 0.241211 6.46883C0.0309245 6.7375 0.0309245 7.11552 0.241211 7.3842C2.54941 10.3307 6.94514 13.6062 11.2162 13.6062C15.3868 13.6062 19.787 10.4529 22.1912 7.3842C22.4014 7.11552 22.4014 6.7375 22.1912 6.46883ZM11.2162 12.1218C8.35134 12.1218 6.02087 9.79136 6.02087 6.92651C6.02087 4.06167 8.35134 1.7312 11.2162 1.7312C14.081 1.7312 16.4115 4.06167 16.4115 6.92651C16.4115 9.79136 14.081 12.1218 11.2162 12.1218ZM7.50525 6.92651C7.50525 4.88055 9.16973 3.21558 11.2162 3.21558C13.2626 3.21558 14.9271 4.88055 14.9271 6.92651C14.9271 8.97248 13.2626 10.6374 11.2162 10.6374C9.16973 10.6374 7.50525 8.97248 7.50525 6.92651ZM8.98962 6.92651C8.98962 8.15409 9.98861 9.15308 11.2162 9.15308C12.4438 9.15308 13.4427 8.15409 13.4427 6.92651C13.4427 5.69894 12.4438 4.69995 11.2162 4.69995C9.98861 4.69995 8.98962 5.69894 8.98962 6.92651ZM11.2162 7.6687C11.6261 7.6687 11.9584 7.33641 11.9584 6.92651C11.9584 6.51661 11.6261 6.18433 11.2162 6.18433C10.8063 6.18433 10.474 6.51661 10.474 6.92651C10.474 7.33641 10.8063 7.6687 11.2162 7.6687ZM13.5417 19.6427C13.5417 16.3686 16.2052 13.7052 19.4792 13.7052C22.7533 13.7052 25.4167 16.3702 25.4167 19.6427C25.4167 22.9167 22.7532 25.5802 19.4792 25.5802C16.2051 25.5802 13.5417 22.9151 13.5417 19.6427ZM22.058 16.0143C21.3301 15.4948 20.4395 15.1895 19.4792 15.1895C17.0236 15.1895 15.0261 17.187 15.026 19.6427C15.026 20.603 15.3313 21.4936 15.8508 22.2215L22.058 16.0143ZM16.9004 23.271C17.6283 23.7905 18.5189 24.0958 19.4792 24.0958C21.9349 24.0958 23.9323 22.0983 23.9324 19.6426C23.9324 18.6823 23.6271 17.7917 23.1076 17.0639L16.9004 23.271Z" fill="#1E1E1E"/>
</svg>
